<svg id="Capa_1" enable-background="new 0 0 512.012 512.012" height="512" viewBox="0 0 512.012 512.012" width="512" xmlns="http://www.w3.org/2000/svg"><g><g><path clip-rule="evenodd" d="m150.632 48.264h-89.94c-2.866 0-5.192 2.353-5.192 5.216v406.983c0 2.863 2.327 5.188 5.192 5.188h210.182c-8.824-9.78-14.243-22.423-14.952-35.888z" fill="#e29d7b" fill-rule="evenodd"/></g><g><path clip-rule="evenodd" d="m291.161 84.151v-35.887-4.252c0-4.876-4.001-8.873-8.881-8.873h-20.769v-8.986c0-10.262-8.398-18.653-18.669-18.653h-53.879c-10.271 0-18.697 8.391-18.697 18.653v8.986h-20.74c-4.88 0-8.909 3.997-8.909 8.873v4.252 35.888h150.544z" fill="#7e707d" fill-rule="evenodd"/></g><g><path clip-rule="evenodd" d="m376.306 385.229v-331.75c0-2.863-2.327-5.216-5.192-5.216h-89.94v35.888l59.213 310.602c7.575 3.827 14.073 9.185 19.18 15.619z" fill="#ce8b6b" fill-rule="evenodd"/></g><g><path clip-rule="evenodd" d="m340.387 374.74v-285.741c0-2.665-2.185-4.847-4.852-4.847h-44.374-150.544-44.346c-2.667 0-4.852 2.183-4.852 4.847v335.916c0 2.665 2.185 4.847 4.852 4.847h159.651c35.551 5.67 84.209-22.706 84.465-55.022z" fill="#faf5dc" fill-rule="evenodd"/></g><g><path clip-rule="evenodd" d="m181.814 371.905v-41.245c0-2.551-2.1-4.677-4.653-4.677h-41.282c-2.582 0-4.681 2.126-4.681 4.677v41.245c0 2.58 2.1 4.677 4.681 4.677h41.282c2.553.001 4.653-2.097 4.653-4.677z" fill="#b3e59f" fill-rule="evenodd"/></g><g><path clip-rule="evenodd" d="m181.814 270.11v-41.245c0-2.58-2.1-4.677-4.653-4.677h-41.282c-2.582 0-4.681 2.098-4.681 4.677v41.245c0 2.551 2.1 4.677 4.681 4.677h41.282c2.553 0 4.653-2.126 4.653-4.677z" fill="#b3e59f" fill-rule="evenodd"/></g><g><path clip-rule="evenodd" d="m181.814 169.817v-41.245c0-2.551-2.1-4.677-4.653-4.677h-41.282c-2.582 0-4.681 2.126-4.681 4.677v41.245c0 2.58 2.1 4.677 4.681 4.677h41.282c2.553 0 4.653-2.097 4.653-4.677z" fill="#b3e59f" fill-rule="evenodd"/></g><g><path clip-rule="evenodd" d="m359.566 390.36c-5.107-6.406-11.604-11.793-19.18-15.619-4.142-2.098-8.625-3.742-13.363-4.819-31.351-7.144-62.561 12.445-69.711 43.74-1.248 5.414-1.674 10.829-1.39 16.101.709 13.465 6.128 26.108 14.952 35.888 7.746 8.561 18.102 14.911 30.217 17.66 7.15 1.644 14.3 1.871 21.137.907 40.232-5.982 64.093-51.564 37.338-93.858z" fill="#b3e59f" fill-rule="evenodd"/></g><g><path clip-rule="evenodd" d="m389.045 487.109 30.472-45.724-43.211-28.744-7.15-4.734-14.725-9.808-14.044 21.062-7.065 10.602-9.363 14.06c-4.454 6.718-6.554 14.315-6.526 21.827.057 6.463 1.702 12.87 4.795 18.568 2.922 5.386 7.178 10.177 12.626 13.777 17.903 11.905 42.303 7.001 54.191-10.886z" fill="#f9f7f8" fill-rule="evenodd"/></g><g><path clip-rule="evenodd" d="m449.989 395.632c11.916-17.887 7.008-42.266-10.895-54.172-17.903-11.878-42.303-7.002-54.22 10.885l-8.568 12.898-16.74 25.116-5.135 7.739 14.725 9.808 7.15 4.734 43.211 28.744z" fill="#f37c7c" fill-rule="evenodd"/></g><g><path clip-rule="evenodd" d="m449.989 395.632c11.916-17.887 7.008-42.266-10.895-54.172-3.773-2.495-7.859-4.28-12.03-5.329 9.647 12.898 10.725 31.04 1.305 45.129l-30.443 45.753 21.591 14.372z" fill="#ee6161" fill-rule="evenodd"/></g><g><path clip-rule="evenodd" d="m389.045 487.109 30.472-45.724-21.591-14.372-21.62 32.429-4.029 6.066-4.823 7.257c-9.391 14.089-26.556 20.127-42.19 16.186 2.61 3.458 5.788 6.52 9.59 9.043 17.903 11.906 42.303 7.002 54.191-10.885z" fill="#f0f0f0" fill-rule="evenodd"/></g><g><path clip-rule="evenodd" d="m354.431 398.098 5.135-7.739c-.028-.028-.085-.085-.113-.142-5.192-6.435-11.689-11.736-19.066-15.449-.397-.227-.794-.397-1.192-.595l-39.664 59.558c-6.526 9.808-9.561 20.92-9.42 31.919.057 5.046.794 10.063 2.156 14.911 2.809 1.134 5.76 2.069 8.824 2.75 7.15 1.644 14.3 1.871 21.137.907-3.093-5.698-4.738-12.104-4.795-18.568-.028-7.512 2.071-15.109 6.526-21.827 10.157-15.223 20.315-30.474 30.472-45.725z" fill="#95d6a4" fill-rule="evenodd"/></g><g><path clip-rule="evenodd" d="m340.387 272.548v-34.64-148.909c0-2.665-2.185-4.847-4.852-4.847h-44.374-9.987-50.304c8.483 14.712 15.775 30.587 21.762 47.425 4.001 11.339 7.405 23.103 10.157 35.236 4.681 20.722 7.434 42.521 8.001 65.057.057 2.835.113 5.698.113 8.561 0 9.014-.369 17.887-1.05 26.675-1.816 23.216-5.987 45.554-12.172 66.56-3.603 12.218-7.888 23.982-12.796 35.236-1.163 2.665-2.355 5.301-3.603 7.881-9.193 19.503-20.343 37.305-33.054 52.981h47.694c-.284-5.273.142-10.687 1.39-16.101 7.15-31.295 38.359-50.884 69.711-43.74 3.178.737 6.242 1.729 9.193 2.92 1.419.595 2.809 1.219 4.171 1.899z" fill="#f5ebcd" fill-rule="evenodd"/></g><g><path clip-rule="evenodd" d="m270.874 465.65c-8.824-9.78-14.243-22.423-14.952-35.888h-47.694c-11.065 13.663-23.35 25.739-36.6 35.888z" fill="#ce8b6b" fill-rule="evenodd"/></g><g><path clip-rule="evenodd" d="m291.161 84.151v-35.887-4.252c0-4.876-4.001-8.873-8.881-8.873h-20.769v-8.986c0-10.262-8.398-18.653-18.669-18.653h-23.01c6.866 10.347 10.867 22.65 10.867 35.859 0 15.364-5.419 29.51-14.498 40.792z" fill="#6a5d6a" fill-rule="evenodd"/></g><g><path d="m177.161 116.395h-41.282c-6.717 0-12.182 5.463-12.182 12.177v41.245c0 6.714 5.465 12.177 12.182 12.177h41.282c6.701 0 12.153-5.463 12.153-12.177v-41.245c0-6.715-5.452-12.177-12.153-12.177zm-2.847 50.599h-35.616v-35.6h35.616z"/><path d="m177.161 216.688h-41.282c-6.717 0-12.182 5.463-12.182 12.177v41.245c0 6.714 5.465 12.177 12.182 12.177h41.282c6.701 0 12.153-5.463 12.153-12.177v-41.245c0-6.715-5.452-12.177-12.153-12.177zm-2.847 50.599h-35.616v-35.6h35.616z"/><path d="m177.161 318.482h-41.282c-6.717 0-12.182 5.463-12.182 12.178v41.245c0 6.714 5.465 12.177 12.182 12.177h41.282c6.701 0 12.153-5.463 12.153-12.177v-41.245c0-6.715-5.452-12.178-12.153-12.178zm-2.847 50.601h-35.616v-35.6h35.616z"/><path d="m221.62 139.076h78.988c4.142 0 7.5-3.358 7.5-7.5s-3.358-7.5-7.5-7.5h-78.988c-4.142 0-7.5 3.358-7.5 7.5s3.358 7.5 7.5 7.5z"/><path d="m221.62 174.312h78.988c4.142 0 7.5-3.358 7.5-7.5s-3.358-7.5-7.5-7.5h-78.988c-4.142 0-7.5 3.358-7.5 7.5s3.358 7.5 7.5 7.5z"/><path d="m221.62 239.37h78.988c4.142 0 7.5-3.358 7.5-7.5s-3.358-7.5-7.5-7.5h-78.988c-4.142 0-7.5 3.358-7.5 7.5s3.358 7.5 7.5 7.5z"/><path d="m221.62 274.605h78.988c4.142 0 7.5-3.358 7.5-7.5s-3.358-7.5-7.5-7.5h-78.988c-4.142 0-7.5 3.358-7.5 7.5s3.358 7.5 7.5 7.5z"/><path d="m221.62 341.165h78.988c4.142 0 7.5-3.358 7.5-7.5s-3.358-7.5-7.5-7.5h-78.988c-4.142 0-7.5 3.358-7.5 7.5s3.358 7.5 7.5 7.5z"/><path d="m253.737 361.4h-32.117c-4.142 0-7.5 3.358-7.5 7.5s3.358 7.5 7.5 7.5h32.117c4.142 0 7.5-3.358 7.5-7.5s-3.358-7.5-7.5-7.5z"/><path d="m463.076 364.824c-2.459-12.226-9.502-22.741-19.836-29.613-19.061-12.646-44.128-9.397-59.435 6.55v-288.282c0-7.012-5.693-12.716-12.692-12.716h-72.779c-1.512-7.477-8.135-13.125-16.055-13.125h-13.269v-1.486c.001-14.42-11.738-26.152-26.168-26.152h-53.879c-14.445 0-26.197 11.732-26.197 26.152v1.486h-13.24c-7.934 0-14.568 5.648-16.082 13.125h-72.752c-6.999.001-12.692 5.705-12.692 12.716v184.428c0 4.142 3.358 7.5 7.5 7.5s7.5-3.358 7.5-7.5v-182.143h70.117v20.888h-36.846c-6.811 0-12.352 5.539-12.352 12.347v335.917c0 6.808 5.541 12.347 12.352 12.347h152.91c1.19 7.256 3.62 14.304 7.238 20.888h-193.419v-181.096c0-4.142-3.358-7.5-7.5-7.5s-7.5 3.358-7.5 7.5v183.407c0 6.996 5.693 12.688 12.692 12.688h206.987c8.64 8.628 19.534 14.69 31.732 17.47 4.842 1.114 9.752 1.671 14.678 1.671 1.414 0 2.829-.051 4.245-.143 3.288 4.716 7.45 8.821 12.368 12.092 7.699 5.12 16.562 7.772 25.644 7.772 3.1 0 6.225-.309 9.338-.935 12.234-2.458 22.749-9.496 29.604-19.81l30.396-45.625c.025-.036.055-.067.079-.104.03-.045.053-.092.082-.137l30.387-45.61c6.874-10.32 9.305-22.738 6.844-34.967zm-314.959-320.813c0-.731.658-1.373 1.409-1.373h20.74c4.142 0 7.5-3.358 7.5-7.5v-8.986c0-6.149 5.023-11.152 11.197-11.152h53.879c6.159 0 11.169 5.003 11.169 11.152v8.986c0 4.142 3.358 7.5 7.5 7.5h20.769c.735 0 1.381.642 1.381 1.373v32.64h-135.544zm101.885 367.975c-.782 3.414-1.277 6.848-1.514 10.276h-149.569v-330.611h233.967v146.256c0 4.142 3.358 7.5 7.5 7.5s7.5-3.358 7.5-7.5v-148.908c0-6.808-5.541-12.347-12.352-12.347h-36.874v-20.888h70.145v307.181l-10.242 15.381c-3.29-3.047-6.862-5.725-10.677-8.012v-97.765c0-4.142-3.358-7.5-7.5-7.5s-7.5 3.358-7.5 7.5v91.179c-1.382-.411-2.777-.793-4.197-1.118-35.33-8.052-70.628 14.102-78.687 49.376zm67.715 27.679c-6.875 10.319-9.306 22.737-6.846 34.966.175.871.38 1.73.601 2.583-2.922-.153-5.833-.553-8.716-1.215-13.218-3.012-24.464-10.986-31.666-22.455-7.192-11.453-9.489-25.021-6.467-38.211 6.219-27.221 33.462-44.313 60.724-38.1 9.552 2.188 18.013 6.923 24.762 13.788zm65.081 43.293c-4.64 6.982-11.768 11.746-20.07 13.414-8.307 1.67-16.729.027-23.721-4.622-6.991-4.649-11.761-11.78-13.43-20.077-1.669-8.296-.027-16.71 4.624-23.691 0 0 0-.001.001-.001l26.301-39.496 52.604 34.985zm60.949-91.484-26.323 39.511-52.607-34.987 26.299-39.494c6.079-9.124 16.131-14.065 26.368-14.065 6.012 0 12.087 1.705 17.457 5.267 6.991 4.649 11.761 11.779 13.43 20.077 1.669 8.296.027 16.71-4.624 23.691z"/></g></g></svg>